<svg width="1024" height="1024" viewBox="0 0 1024 1024" fill="none" xmlns="http://www.w3.org/2000/svg">
  <rect width="1024" height="1024" rx="220" fill="#F7F1E8"/>
  <path d="M512 250C390 250 292 348 292 470C292 592 390 690 512 690C634 690 732 592 732 470C732 348 634 250 512 250ZM512 334C588 334 648 394 648 470C648 546 588 606 512 606C436 606 376 546 376 470C376 394 436 334 512 334Z" fill="#263F36"/>
  <path d="M512 408C477 408 448 437 448 472C448 507 477 536 512 536C547 536 576 507 576 472C576 437 547 408 512 408Z" fill="#F7F1E8"/>
  <path d="M360 756H664" stroke="#263F36" stroke-width="56" stroke-linecap="round"/>
</svg>
